#!OML:ASF F:\VICON\USERDATA\INSTALL\rory3\rory3.ASF
:FULLY-SPECIFIED
:DEGREES
310
root 0.221379 17.2189 32.3813 -0.268868 4.68816 2.55665
lowerback 4.60632 -3.76351 -4.4678
upperback -0.989776 -5.17396 3.63441
thorax -2.87255 -2.47733 6.62777
lowerneck -15.4496 -1.71728 -10.2062
upperneck 23.2113 -0.632534 3.5776
head 10.0013 -0.785164 2.88998
rclavicle 2.18539e-014 -4.77083e-015
rhumerus -45.8426 -24.0613 -63.9935
rradius 21.7006
rwrist 15.2754
rhand -13.8161 13.9691
rfingers 7.12502
rthumb 12.3064 -15.6487
lclavicle 2.18539e-014 -4.77083e-015
lhumerus -27.3423 3.6674 83.1051
lradius 35.1311
lwrist -8.47572
lhand -14.2551 23.5843
lfingers 7.12502
lthumb 11.8831 53.2271
rfemur -23.7429 -0.0720869 18.7391
rtibia 25.6253
rfoot -1.96321 -4.60842
rtoes 2.45166
lfemur 13.6977 -6.89128 -23.613
ltibia 32.7678
lfoot 11.4996 -8.11671
ltoes -13.5328
311
root 0.19693 17.2385 32.591 -0.458851 4.76116 2.12425
lowerback 4.79383 -3.72648 -4.06525
upperback -1.01448 -5.10096 3.76368
thorax -3.03674 -2.4403 6.55065
lowerneck -15.4495 -1.76485 -10.2468
upperneck 23.1698 -0.670312 3.50801
head 9.99049 -0.812972 2.86623
rclavicle -5.45415e-014 2.38542e-014
rhumerus -45.8108 -23.8191 -64.033
rradius 21.7507
rwrist 14.8335
rhand -14.0187 14.2943
rfingers 7.12502
rthumb 12.111 -15.3352
lclavicle -5.45415e-014 2.38542e-014
lhumerus -27.9415 3.43412 83.4049
lradius 35.4139
lwrist -8.45979
lhand -13.8052 23.569
lfingers 7.12502
lthumb 12.3169 53.1863
rfemur -22.9604 -0.0309054 19.3914
rtibia 25.8191
rfoot -2.17047 -4.4504
rtoes 3.6781
lfemur 12.5961 -6.92098 -23.0198
ltibia 35.2792
lfoot 13.7287 -8.87319
ltoes -11.6628
312
root 0.170376 17.2587 32.8023 -0.688538 4.8535 1.7009
lowerback 4.81127 -3.6645 -3.69517
upperback -0.812176 -4.99414 3.84131
thorax -2.87501 -2.40284 6.40824
lowerneck -15.8345 -1.8581 -10.0569
upperneck 23.155 -0.767609 3.35802
head 10.0648 -0.855767 2.76882
rclavicle 7.18482e-014 -2.70347e-014
rhumerus -45.4014 -24.16 -64.0522
rradius 21.5911
rwrist 14.7564
rhand -14.2279 14.7734
rfingers 7.12502
rthumb 11.9094 -14.8679
lclavicle 7.18482e-014 -2.70347e-014
lhumerus -28.0526 3.04877 83.7079
lradius 35.484
lwrist -8.40698
lhand -13.5633 23.4345
lfingers 7.12502
lthumb 12.5501 53.0375
rfemur -21.9673 0.272641 19.9883
rtibia 25.7372
rfoot -2.30579 -4.51699
rtoes 6.07692
lfemur 11.5556 -6.90974 -22.4301
ltibia 37.8718
lfoot 15.5786 -9.81744
ltoes -10.9282
313
root 0.14669 17.2926 33.0123 -0.893316 4.81305 1.07932
lowerback 4.83831 -3.58078 -3.09854
upperback -0.642861 -4.84426 3.94845
thorax -2.77388 -2.3433 6.16936
lowerneck -16.0988 -1.90101 -9.85663
upperneck 23.1478 -0.845817 3.33699
head 10.1159 -0.874703 2.71794
rclavicle -2.01642e-014 -1.59028e-015
rhumerus -44.9808 -23.9842 -64.5421
rradius 21.8014
rwrist 14.2174
rhand -14.381 14.7913
rfingers 7.12502
rthumb 11.7617 -14.8585
lclavicle -2.01642e-014 -1.59028e-015
lhumerus -28.2378 2.51195 83.966
lradius 35.6149
lwrist -7.99729
lhand -13.2674 23.4239
lfingers 7.12502
lthumb 12.8355 53.0093
rfemur -20.897 0.556624 20.8425
rtibia 25.4764
rfoot -2.48092 -4.67748
rtoes 7.54583
lfemur 10.2307 -6.85684 -21.6068
ltibia 40.5451
lfoot 17.7406 -10.3554
ltoes -9.91417
314
root 0.121623 17.3286 33.2206 -0.993763 4.61266 0.148067
lowerback 4.90034 -3.44755 -2.21529
upperback -0.692128 -4.60421 4.17904
thorax -2.94014 -2.22974 5.90755
lowerneck -15.8172 -1.95172 -9.83573
upperneck 23.0109 -0.972956 3.40889
head 10.0221 -0.920968 2.72078
rclavicle -1.56543e-015 2.06736e-014
rhumerus -44.7557 -23.2905 -65.1021
rradius 22.0247
rwrist 13.3572
rhand -14.3815 14.1748
rfingers 7.12502
rthumb 11.7612 -15.475
lclavicle -1.56543e-015 2.06736e-014
lhumerus -28.7241 1.97885 84.3097
lradius 35.5989
lwrist -7.84336
lhand -13.4523 23.2152
lfingers 7.12502
lthumb 12.6572 52.8117
rfemur -19.9203 1.0031 22.0636
rtibia 25.1256
rfoot -2.66346 -4.89598
rtoes 8.09049
lfemur 8.65714 -6.71157 -20.3966
ltibia 43.238
lfoot 20.0193 -10.7188
ltoes -6.96617
315
root 0.0949443 17.3445 33.4192 -1.10639 4.38557 -0.723373
lowerback 4.90412 -3.29955 -1.43423
upperback -0.623964 -4.35206 4.41457
thorax -2.9403 -2.11559 5.69619
lowerneck -15.6384 -2.0713 -9.96791
upperneck 22.7362 -1.18379 3.64297
head 9.9069 -0.99668 2.79398
rclavicle -2.58793e-014 3.33958e-014
rhumerus -44.1582 -22.6511 -65.7096
rradius 22.0173
rwrist 12.6363
rhand -14.3991 13.7093
rfingers 7.12502
rthumb 11.7442 -15.9414
lclavicle -2.58793e-014 3.33958e-014
lhumerus -28.8046 1.42907 84.6724
lradius 35.3142
lwrist -8.03438
lhand -13.3011 23.2781
lfingers 7.12502
lthumb 12.8029 52.8655
rfemur -18.8928 1.46802 23.2395
rtibia 24.6942
rfoot -2.81523 -5.08706
rtoes 8.74961
lfemur 7.12393 -6.38155 -19.1839
ltibia 45.8883
lfoot 19.5297 -11.1419
ltoes -11.5628
